<svg xmlns="http://www.w3.org/2000/svg" xmlns:xlink="http://www.w3.org/1999/xlink" width="500" zoomAndPan="magnify" viewBox="0 0 375 374.999991" height="500" preserveAspectRatio="xMidYMid meet" version="1.2"><defs><clipPath id="6ff92542c3"><path d="M 20 16 L 359 16 L 359 356 L 20 356 Z M 20 16 "/></clipPath><clipPath id="2b65855532"><path d="M 0 43.5 L 0 331.5 C 0 355.523438 19.476562 375 43.5 375 L 331.5 375 C 355.523438 375 375 355.523438 375 331.5 L 375 43.5 C 375 19.476562 355.523438 0 331.5 0 L 43.5 0 C 19.476562 0 0 19.476562 0 43.5 Z M 0 43.5 "/></clipPath><clipPath id="fbe9968fd8"><path d="M 0 43.5 L 0 331.5 C 0 355.523438 19.476562 375 43.5 375 L 331.5 375 C 355.523438 375 375 355.523438 375 331.5 L 375 43.5 C 375 19.476562 355.523438 0 331.5 0 L 43.5 0 C 19.476562 0 0 19.476562 0 43.5 Z M 0 43.5 "/></clipPath><clipPath id="02fa4b0821"><path d="M 82.902344 82.902344 L 292.152344 82.902344 L 292.152344 292.152344 L 82.902344 292.152344 Z M 82.902344 82.902344 "/></clipPath></defs><g id="561fff5677"><g clip-rule="nonzero" clip-path="url(#6ff92542c3)"><g clip-rule="nonzero" clip-path="url(#2b65855532)"><path style=" stroke:none;fill-rule:nonzero;fill:#58a6ff;fill-opacity:1;" d="M 348.996094 56.707031 C 346.46875 63.699219 343.898438 71.011719 344.765625 78.394531 C 345.238281 82.390625 346.707031 86.234375 347.0625 90.242188 C 347.382812 93.84375 346.792969 97.453125 346.203125 101.019531 C 345.363281 106.121094 344.523438 111.226562 343.683594 116.328125 C 341.585938 121.433594 338.175781 127.03125 336.195312 132.183594 C 334.210938 137.335938 333.070312 143.035156 334.453125 148.378906 C 335.835938 153.71875 339.925781 156.386719 345.246094 158.914062 C 348.066406 161.40625 349.914062 165.222656 349.300781 168.933594 C 349.066406 170.367188 348.488281 171.71875 348.105469 173.121094 C 347.246094 176.28125 347.40625 179.625 347.78125 182.878906 C 347.90625 183.988281 348.058594 185.101562 348.363281 186.179688 C 349.039062 188.5625 350.4375 191.832031 350.800781 194.28125 C 352.351562 196.175781 352.730469 198.824219 352.324219 201.238281 C 351.921875 203.648438 350.816406 205.886719 349.667969 208.046875 C 348.363281 210.488281 346.976562 212.894531 345.933594 215.460938 C 344.894531 218.03125 344.207031 220.789062 344.382812 223.550781 C 344.558594 226.316406 345.667969 229.089844 347.761719 230.90625 C 347.074219 242.328125 339.949219 254.289062 336.726562 265.269531 C 335.433594 269.671875 334.71875 274.21875 334.003906 278.746094 C 333.515625 281.847656 333.03125 284.980469 333.277344 288.109375 C 333.523438 291.238281 334.585938 294.40625 336.800781 296.628906 C 339.371094 302.359375 345.363281 306.992188 347.914062 312.730469 C 349.421875 316.117188 349.683594 319.949219 349.277344 323.632812 C 348.871094 327.316406 347.289062 331.398438 346.242188 334.949219 C 347.316406 337.476562 348.292969 340.046875 349.171875 342.648438 C 349.75 344.351562 350.253906 346.339844 349.289062 347.859375 C 348.449219 349.167969 346.796875 349.65625 345.269531 349.957031 C 343.746094 350.257812 342.09375 350.519531 340.980469 351.601562 C 339.828125 352.71875 339.371094 354.609375 337.875 355.1875 C 336.878906 355.574219 335.765625 355.222656 334.757812 354.875 C 331.550781 353.765625 328.351562 352.652344 325.144531 351.542969 C 319.777344 348.902344 312.996094 347.285156 307.195312 345.824219 C 305.316406 345.351562 303.429688 344.878906 301.503906 344.65625 C 296.757812 344.101562 290.796875 345.402344 286.675781 347.816406 C 280.960938 347.085938 275.246094 346.351562 269.53125 345.621094 C 267.199219 345.324219 264.863281 345.023438 262.582031 344.457031 C 255.949219 342.808594 250.097656 338.988281 244.386719 335.230469 C 240.992188 335.789062 236.726562 333.65625 233.300781 333.308594 C 229.886719 332.960938 226.488281 334.445312 223.828125 336.613281 C 221.167969 338.785156 218.546875 342.398438 216.539062 345.183594 C 214.710938 347.238281 212.195312 348.671875 209.496094 349.199219 C 206.792969 349.726562 203.925781 349.34375 201.457031 348.132812 C 200.0625 347.921875 197.355469 347.738281 195.960938 347.53125 C 194.664062 347.335938 193.351562 347.140625 192.042969 347.253906 C 190.136719 347.421875 188.351562 348.230469 186.609375 349.027344 C 184.945312 349.789062 183.28125 350.554688 181.613281 351.316406 C 179.835938 352.976562 176.332031 353.332031 173.96875 352.765625 C 171.605469 352.195312 169.496094 350.898438 167.386719 349.6875 C 163.925781 347.703125 160.289062 345.886719 156.359375 345.171875 C 152.433594 344.460938 147.128906 345.183594 143.882812 347.511719 C 136.332031 347.050781 128.890625 344.898438 122.261719 341.25 C 119.902344 339.949219 117.640625 338.464844 115.203125 337.308594 C 112.769531 336.15625 110.105469 335.335938 107.417969 335.480469 C 103.207031 334.816406 97.808594 334.660156 93.601562 333.996094 C 92.167969 337.480469 90.542969 340.933594 88.128906 343.824219 C 85.710938 346.710938 82.414062 349.003906 78.691406 349.566406 C 77.546875 349.738281 76.355469 349.746094 75.25 349.40625 C 73.042969 348.734375 71.050781 346.585938 69.613281 344.777344 C 67.15625 346.503906 64.074219 347.015625 61.246094 348.039062 C 59.675781 348.605469 58.144531 349.339844 56.492188 349.578125 C 55.039062 349.789062 53.554688 349.601562 52.105469 349.367188 C 50.179688 349.054688 48.269531 348.65625 46.378906 348.171875 C 44.746094 347.753906 42.441406 347.453125 40.804688 347.867188 C 38.65625 349.296875 36.25 350.421875 33.683594 350.6875 C 31.121094 350.953125 28.382812 350.269531 26.523438 348.484375 C 25.441406 347.449219 24.703125 346.101562 24.113281 344.71875 C 21.863281 339.453125 21.585938 333.371094 23.34375 327.917969 C 24.769531 322.851562 26.46875 316.625 27.894531 311.5625 C 28.957031 307.796875 30.023438 304.003906 30.292969 300.101562 C 30.566406 296.199219 29.984375 292.132812 27.949219 288.796875 C 27.96875 284.289062 27.59375 279.441406 27.988281 274.949219 C 28.367188 270.621094 28.753906 266.253906 30.039062 262.101562 C 31.113281 258.636719 32.792969 255.390625 34.347656 252.109375 C 36.140625 248.316406 37.773438 244.449219 39.234375 240.515625 C 41.796875 237.136719 42.511719 231.191406 40.789062 227.316406 C 39.066406 223.441406 35.457031 220.1875 31.90625 217.875 C 30.828125 217.171875 29.707031 216.519531 28.746094 215.664062 C 27.785156 214.804688 26.488281 212.578125 26.25 211.316406 C 24.863281 207.351562 26.816406 203.105469 27.578125 198.976562 C 28.765625 192.53125 26.820312 185.574219 22.457031 180.679688 C 21.59375 179.710938 20.597656 178.742188 20.324219 177.472656 C 19.941406 175.691406 21.085938 173.976562 22.105469 172.464844 C 26.054688 166.582031 29.351562 158.941406 30.890625 152.027344 C 29.667969 148.523438 27.902344 144.773438 27.707031 141.070312 C 27.351562 134.269531 30.511719 127.835938 33.570312 121.753906 C 36.628906 115.667969 40.449219 107.507812 39.988281 100.714844 C 42.988281 91.796875 43.789062 81.84375 32.40625 70.949219 C 28.226562 66.722656 25.765625 60.835938 25.703125 54.890625 C 25.648438 49.902344 27.199219 44.957031 26.796875 39.984375 C 26.15625 32.191406 20.832031 24.550781 21.496094 16.761719 C 38.800781 16.976562 55.15625 27.820312 72.328125 29.972656 C 74.523438 30.644531 77.988281 30.5625 80.210938 29.976562 C 82.429688 29.386719 84.5625 28.503906 86.792969 27.964844 C 91.144531 26.917969 95.816406 27.238281 99.980469 28.878906 C 106.277344 29.171875 113.707031 29.808594 119.359375 32.605469 C 122.238281 34.027344 124.792969 36.042969 127.683594 37.441406 C 131.101562 39.089844 134.875 39.824219 138.601562 40.542969 C 140.527344 41.386719 143.699219 41.996094 145.742188 41.496094 C 147.789062 40.996094 149.667969 39.960938 151.359375 38.710938 C 153.449219 37.160156 155.273438 35.261719 156.734375 33.109375 C 158.242188 30.894531 160.664062 27.746094 163.078125 26.578125 C 165.773438 24.933594 169.234375 25.40625 172.265625 26.292969 C 175.300781 27.175781 178.339844 28.433594 181.488281 28.183594 C 183.484375 28.023438 185.378906 27.265625 187.238281 26.515625 C 189.28125 25.691406 191.328125 24.863281 193.371094 24.039062 C 196.148438 22.511719 200.414062 22.804688 203.492188 23.5625 C 206.574219 24.324219 209.414062 25.808594 212.246094 27.234375 C 215.078125 28.660156 217.984375 30.046875 221.113281 30.582031 C 224.761719 30.855469 228.203125 28.425781 231.324219 27.960938 C 237.257812 27.074219 243.929688 29.398438 249.472656 31.699219 C 254.636719 34.835938 259.976562 38.039062 265.949219 38.957031 C 269.773438 39.546875 275.363281 39.351562 278.902344 40.914062 C 282.074219 41.726562 285.421875 41.828125 288.636719 41.210938 C 292.574219 40.457031 296.246094 38.644531 299.5625 36.398438 C 302.878906 34.15625 306.710938 31.238281 309.699219 28.566406 C 314.425781 25.695312 320.246094 24.679688 325.664062 25.78125 C 328.125 26.28125 330.488281 27.195312 332.96875 27.601562 C 336.25 27.921875 340.222656 27.078125 343.222656 25.703125 C 346.222656 24.328125 349.039062 22.574219 352.058594 21.25 C 353.425781 20.648438 355.023438 20.140625 356.371094 20.78125 C 357.449219 21.289062 358.105469 22.4375 358.3125 23.609375 C 358.519531 24.777344 358.339844 25.976562 358.132812 27.148438 C 356.488281 36.425781 353.078125 45.289062 349.691406 54.082031 "/></g></g><g clip-rule="nonzero" clip-path="url(#fbe9968fd8)"><rect x="0" width="375" y="0" height="374.999991" style="fill:#58a6ff;fill-opacity:1;stroke:none;"/></g><g clip-rule="nonzero" clip-path="url(#02fa4b0821)"><path style=" stroke:none;fill-rule:nonzero;fill:#f8f9f9;fill-opacity:1;" d="M 253.742188 159.605469 C 274.886719 159.605469 292.09375 142.402344 292.09375 121.253906 C 292.09375 100.109375 274.886719 82.902344 253.742188 82.902344 C 232.597656 82.902344 215.390625 100.109375 215.390625 121.253906 C 215.390625 124.941406 215.941406 128.496094 216.917969 131.871094 L 151.796875 164.433594 C 144.679688 154.898438 133.535156 149.148438 121.253906 149.148438 C 100.109375 149.148438 82.902344 166.351562 82.902344 187.5 C 82.902344 208.644531 100.109375 225.851562 121.253906 225.851562 C 133.554688 225.851562 144.710938 220.082031 151.804688 210.570312 L 216.917969 243.128906 C 215.941406 246.503906 215.390625 250.058594 215.390625 253.742188 C 215.390625 274.890625 232.597656 292.09375 253.742188 292.09375 C 274.886719 292.09375 292.09375 274.890625 292.09375 253.742188 C 292.09375 232.59375 274.886719 215.390625 253.742188 215.390625 C 241.265625 215.390625 230.191406 221.410156 223.183594 230.667969 L 158.042969 198.09375 C 159.042969 194.675781 159.605469 191.144531 159.605469 187.5 C 159.605469 183.847656 159.042969 180.308594 158.046875 176.902344 L 223.183594 144.332031 C 230.191406 153.589844 241.265625 159.605469 253.742188 159.605469 Z M 253.742188 229.335938 C 267.199219 229.335938 278.148438 240.285156 278.148438 253.742188 C 278.148438 267.199219 267.199219 278.148438 253.742188 278.148438 C 240.285156 278.148438 229.335938 267.199219 229.335938 253.742188 C 229.335938 240.285156 240.285156 229.335938 253.742188 229.335938 Z M 121.253906 211.90625 C 107.800781 211.90625 96.847656 200.953125 96.847656 187.5 C 96.847656 174.042969 107.800781 163.09375 121.253906 163.09375 C 130.589844 163.09375 138.933594 168.257812 143.070312 176.644531 C 144.789062 180.023438 145.660156 183.675781 145.660156 187.5 C 145.660156 191.324219 144.789062 194.972656 143.03125 198.429688 C 138.933594 206.738281 130.589844 211.90625 121.253906 211.90625 Z M 253.742188 96.847656 C 267.199219 96.847656 278.148438 107.800781 278.148438 121.253906 C 278.148438 134.710938 267.199219 145.660156 253.742188 145.660156 C 240.285156 145.660156 229.335938 134.710938 229.335938 121.253906 C 229.335938 107.800781 240.285156 96.847656 253.742188 96.847656 Z M 253.742188 96.847656 "/></g></g></svg>